<svg xmlns="http://www.w3.org/2000/svg" viewBox="0 0 100 100">
  <rect width="100" height="100" rx="16" fill="#ffffff"/>
  <g transform="rotate(-33.7 50 50)">
    <circle cx="50" cy="50" r="23" fill="#0047a0"/>
    <path d="M27 50 a23 23 0 0 1 46 0 a11.5 11.5 0 0 1 -23 0 a11.5 11.5 0 0 0 -23 0 z" fill="#cd2e3a"/>
  </g>
  <g fill="#000000">
    <g transform="translate(21,21) rotate(-33.7)">
      <rect x="-11" y="-7" width="22" height="4"/>
      <rect x="-11" y="-2" width="22" height="4"/>
      <rect x="-11" y="3" width="22" height="4"/>
    </g>
    <g transform="translate(79,79) rotate(-33.7)">
      <rect x="-11" y="-7" width="10" height="4"/><rect x="1" y="-7" width="10" height="4"/>
      <rect x="-11" y="-2" width="10" height="4"/><rect x="1" y="-2" width="10" height="4"/>
      <rect x="-11" y="3" width="10" height="4"/><rect x="1" y="3" width="10" height="4"/>
    </g>
    <g transform="translate(79,21) rotate(33.7)">
      <rect x="-11" y="-7" width="10" height="4"/><rect x="1" y="-7" width="10" height="4"/>
      <rect x="-11" y="-2" width="22" height="4"/>
      <rect x="-11" y="3" width="10" height="4"/><rect x="1" y="3" width="10" height="4"/>
    </g>
    <g transform="translate(21,79) rotate(33.7)">
      <rect x="-11" y="-7" width="22" height="4"/>
      <rect x="-11" y="-2" width="10" height="4"/><rect x="1" y="-2" width="10" height="4"/>
      <rect x="-11" y="3" width="22" height="4"/>
    </g>
  </g>
</svg>
